/* XPM */
static char *a2c5bd4531e64d17d137329da94cda02IxbygfCREm7cqqo8[] = {
/* columns rows colors chars-per-pixel */
"48 48 38 1 ",
"  c None",
". c #111111",
"X c #161616",
"o c #1E1E1E",
"O c #2A2A2A",
"+ c #302424",
"@ c #353535",
"# c #41312E",
"$ c #4D3A36",
"% c #347430",
"& c #5A433F",
"* c #7C513F",
"= c #162C44",
"- c #393B43",
"; c #493357",
": c #434343",
"> c #43515B",
", c #674D48",
"< c #735750",
"1 c #5C4766",
"2 c #525964",
"3 c #997148",
"4 c #8E6B62",
"5 c #AA7162",
"6 c #AB7E75",
"7 c #2DAF2D",
"8 c #7B7B82",
"9 c #80648A",
"0 c #9D7EA4",
"q c #808999",
"w c #A5AEBC",
"e c #E8A08D",
"r c #FFC89B",
"t c gray79",
"y c #CCD4DB",
"u c #FFEBCE",
"i c #D9E1E8",
"p c #FFFFF3",
/* pixels */
"                                                ",
"                                                ",
"                                                ",
"                                                ",
"                     &&&&&&&                    ",
"               &&<&#&<4464<4&&                  ",
"              &<4&#&44<&&44<<4&                 ",
"             &<4<#&&<464<&&4<<4&&               ",
"             &<4&#<&&<4<&<<<<<444&              ",
"             &<4&$&4<&&&<<<&44&6&4&             ",
"            &<&<$&$<46&<6<6$<6&4#<#             ",
"            &<&&#&&$<<<4<44#&4#&#<#             ",
"            $<&&+&<&$$<4&4$5#4*###              ",
"            $&$&+#&<&+4<$<#e#<5##               ",
"            #&$&+#$&#+4<$#5e55e1                ",
"            #&#$+##$#+&<5e;;;ue1                ",
"            +$+$++##+r&<e*8t;ur5                ",
"             + # ++#+u#<u*y;%upe                ",
"               +  o++5+&ury7%uue                ",
"                   ooo+*uuuuuur*                ",
"                     o+*5ruure*                 ",
"                   222++**5511                  ",
"                  2qwwq222e5>>                  ",
"                 2iwwwiw>qqe5q                  ",
"                 2wiiiw2>qiqewq                 ",
"                 ;2q22>o2qwiqiq                 ",
"                 ;2->->o>2wwq>>                 ",
"                 2q--2q2o>>22q>                 ",
"                ;2wiwq2O-2qq>w>                 ",
"                ;122OOO<-qww2O                  ",
"                ;1;=$$<6O>>>OO                  ",
"                ;1;=$46$<O@:@O                  ",
"               ;19;=O$,46<O:OO                  ",
"               ;19=;=O$44<OOOO                  ",
"               ;19=;=#,$$OOOO1                  ",
"               ;99=;=#,<44,11                   ",
"               ;99=o#,,,,,#11                   ",
"               ;19=o#,<44,o1                    ",
"                ;9==#,<4<#11                    ",
"                ;1=>2$,<,o1*1                   ",
"                 ; >q2>>qq31*1                  ",
"                   >>wwiw>;1**                  ",
"                    >2q2>q>;11                  ",
"                    >qqqwiq>1                   ",
"                    >qqwwwq>                    ",
"                     ;;;;;;                     ",
"                                                ",
"                                                "
};                                   