/* XPM */
static char *a2c5bd4531e64d17d137329da94cda02IxbygfCREm7cqqo8[] = {
/* columns rows colors chars-per-pixel */
"48 48 38 1 ",
"  c None",
". c #111111",
"X c #161616",
"o c #1E1E1E",
"O c #2A2A2A",
"+ c #302424",
"@ c #353535",
"# c #41312E",
"$ c #4D3A36",
"% c #347430",
"& c #5A433F",
"* c #7C513F",
"= c #162C44",
"- c #393B43",
"; c #493357",
": c #434343",
"> c #43515B",
", c #674D48",
"< c #735750",
"1 c #5C4766",
"2 c #525964",
"3 c #997148",
"4 c #8E6B62",
"5 c #AA7162",
"6 c #AB7E75",
"7 c #2DAF2D",
"8 c #7B7B82",
"9 c #80648A",
"0 c #9D7EA4",
"q c #808999",
"w c #A5AEBC",
"e c #E8A08D",
"r c #FFC89B",
"t c gray79",
"y c #CCD4DB",
"u c #FFEBCE",
"i c #D9E1E8",
"p c #FFFFF3",
/* pixels */
"                                                ",
"                                                ",
"                                                ",
"                                                ",
"                                                ",
"                  &&&&&&&                       ",
"                &&4<4644<&#&&&                  ",
"               &4<<44&&<44&#&&&                 ",
"             &&4<<4&&<464<&&#<<&                ",
"            &444<<<<<&<4<&&<#&<<                ",
"           &4&6&44&<<<&&&<4&$&<<&               ",
"           #<#4&6<$6<6<&64<$&$&<&               ",
"           #<#&#4&#44<4<<<$&&#&<&               ",
"            ###*4#5$4&4<$$&<&+&#$               ",
"             ##5<#e#<$<4+&<&#+&#+               ",
"              1e55e5#$<4+#&$#+#++               ",
"              1eu;;;e5<&+#$##++#                ",
"              5ru;t8*e<&r+##++++                ",
"              epu%;y*u<#u+#++++                 ",
"              euu%7yru&+5++o +                  ",
"              *ruuuuuu*+ooo                     ",
"               *eruur5*+o                       ",
"              >>1155**+-2q22                    ",
"             >>>>>55222qwwwq>                   ",
"             >>>qe5eqq>qiwwwi>                  ",
"            >--qw5eqiw>2qiii>-                  ",
"             >>wiwqiiiqo---o->-                 ",
"             11>wqqwiq2o>-oo>q>                 ",
"             11>2222>>q2Oqqww>;;                ",
"            111>q22wwqq2o-OO>$41;               ",
"            111 >22>>O>>>o$644$;1;              ",
"            111 >>@@@@O>>-o$<$#o=1;             ",
"            11  >@@OOO@>--o#44$==;1;            ",
"                @OOOOOO-OOO$64$===1;            ",
"                OOOOOO--OO;;$$====;1;           ",
"                ,44<,,#1O1;;;;=====1;           ",
"                ,,##,,#1111;;;=====;;           ",
"               o,44<<## 1111;;  ====;           ",
"               #<4<,<##  111;;    ==;           ",
"               o,<,,,#    1111;     ;           ",
"               q>>>,,#   11*11;                 ",
"              ;>qiwqq>  11**1;1                 ",
"             ;>q>2q2>    1**1                   ",
"             >qiwqqq>                           ",
"             >qwwwqq>                           ",
"              ;;;;;;                            ",
"                                                ",
"                                                "
};                                   