/* XPM */
static char *a2c5bd4531e64d17d137329da94cda02IxbygfCREm7cqqo5[] = {
/* columns rows colors chars-per-pixel */
"48 48 38 1 ",
"  c None",
". c #111111",
"X c #161616",
"o c #1E1E1E",
"O c #2A2A2A",
"+ c #302424",
"@ c #353535",
"# c #41312E",
"$ c #4D3A36",
"% c #347430",
"& c #5A433F",
"* c #7C513F",
"= c #162C44",
"- c #393B43",
"; c #493357",
": c #434343",
"> c #43515B",
", c #674D48",
"< c #735750",
"1 c #5C4766",
"2 c #525964",
"3 c #997148",
"4 c #8E6B62",
"5 c #AA7162",
"6 c #AB7E75",
"7 c #2DAF2D",
"8 c #7B7B82",
"9 c #80648A",
"0 c #9D7EA4",
"q c #808999",
"w c #A5AEBC",
"e c #E8A08D",
"r c #FFC89B",
"t c gray79",
"y c #CCD4DB",
"u c #FFEBCE",
"i c #D9E1E8",
"p c #FFFFF3",
/* pixels */
"                                                ",
"                                                ",
"                                                ",
"                                                ",
"                    &&&&&&&                     ",
"                  &&4<4644<&#&<&&               ",
"                 &4<<44&&<44&#&4<&              ",
"               &&4<<4&&<464<&&#<4<&             ",
"              &444<<<<<&<4<&&<#&4<&             ",
"             &4&6&44&<<<&&&<4&$&4<&             ",
"             #<#4&6<$6<6<&64<$&$<&<&            ",
"             #<#&#4&#44<4<<<$&&#&&<&            ",
"              ###*4#5$4&4<$$&<&+&&<$            ",
"               ##5<#e#<$<4+&<&#+&$&$            ",
"                1e55e5#$<4+#&$#+&$&#            ",
"                1eu;;;e5<&+#$##+$#&#            ",
"                5ru;t8*e<&r+##++$+$+            ",
"                epu%;y*u<#u+#++ # +             ",
"                euu%7yru&+5++o  +               ",
"                *ruuuuuu*+ooo                   ",
"                 *eruur5*+o                     ",
"                  1155**++222                   ",
"                  >>5e222qwwq2                  ",
"                  q5eqq>wiwwwi2                 ",
"                 qweqiq>2wiiiw2                 ",
"                 qiqiwq2o>22q2;                 ",
"                 >>qww2>o>->-2;                 ",
"                 >q22>>o2q2--q2                 ",
"                 >w>qq2-O2qwiw2;                ",
"                  O2wwq-<OOO221;                ",
"                  OO>>>O6<$$=;1;                ",
"                  O@:@O<$64$=;1;                ",
"                  OO:O<64,$O=;91;               ",
"                  OOOO<44$O=;=91;               ",
"                  1OOOO$$,#=;=91;               ",
"                   11,44<,#=;=99;               ",
"                   11#,,,,,#o=99;               ",
"                    1o,44<,#o=91;               ",
"                    11#<4<,#==9;                ",
"                   1*1o,<,$2>=1;                ",
"                  1*13qq>>2q> ;                 ",
"                  **1;>wiww>>                   ",
"                  11;>q>2q2>                    ",
"                   1>qiwqqq>                    ",
"                    >qwwwqq>                    ",
"                     ;;;;;;                     ",
"                                                ",
"                                                "
};                                   