/* XPM */
static char *a2c5bd4531e64d17d137329da94cda02IxbygfCREm7cqqo7[] = {
/* columns rows colors chars-per-pixel */
"48 48 38 1 ",
"  c None",
". c #111111",
"X c #161616",
"o c #1E1E1E",
"O c #2A2A2A",
"+ c #302424",
"@ c #353535",
"# c #41312E",
"$ c #4D3A36",
"% c #347430",
"& c #5A433F",
"* c #7C513F",
"= c #162C44",
"- c #393B43",
"; c #493357",
": c #434343",
"> c #43515B",
", c #674D48",
"< c #735750",
"1 c #5C4766",
"2 c #525964",
"3 c #997148",
"4 c #8E6B62",
"5 c #AA7162",
"6 c #AB7E75",
"7 c #2DAF2D",
"8 c #7B7B82",
"9 c #80648A",
"0 c #9D7EA4",
"q c #808999",
"w c #A5AEBC",
"e c #E8A08D",
"r c #FFC89B",
"t c gray79",
"y c #CCD4DB",
"u c #FFEBCE",
"i c #D9E1E8",
"p c #FFFFF3",
/* pixels */
"                                                ",
"                                                ",
"                                                ",
"                                                ",
"                                                ",
"                 &&&&&&&                        ",
"               &&4<4644<&#&<&&                  ",
"              &4<<44&&<44&#&4<&                 ",
"            &&4<<4&&<464<&&#<44&                ",
"           &444<<<<<&<4<&&<#&<4<&               ",
"          &4&6&44&<<<&&&<4&$&<<4&               ",
"          #<#4&6<$6<6<&64<$&$&<4<&              ",
"          #<#&#4&#44<4<<<$&&#&&<<&              ",
"           ###*4#5$4&4<$$&<&+#&&<&              ",
"            ##5<#e#<$<4+&<&#+#&&<&+             ",
"             1e55e5#$<4+#&$#+ #&$&+             ",
"             1eu;;;e5<&+#$##+ #&#+              ",
"             5ru;t8*e<&r+##++  #+               ",
"             epu%;y*u<#u+#++   +                ",
"             euu%7yru&+5++o                     ",
"             *ruuuuuu*+ooo                      ",
"              *eruur5*+o                        ",
"               1155*++222                       ",
"               >>5e22qwwq2                      ",
"               5eqq2qiwwwi2                     ",
"              qeqiwq2wiiiw2=                    ",
"              qqiiwqo>2222;;=                   ",
"              >qwiwq-oooo-2===                  ",
"               22>>Oq----q2;===                 ",
"               >qq2<2wiiw291;;==                ",
"               2w$$6<2222=;9911;=               ",
"               oO44$662Oo==;9991;               ",
"               oO46$$$OOOo==;1111;              ",
"               Oo$$$OOOOOo===;;11;              ",
"               OOOO$OOOO<<#===;;11;             ",
"              1OOOOooO<<4<#====;;1=             ",
"              111OO o<44<,,#=  =;;=             ",
"              11111  o,<4<,#o   =;=             ",
"             11111    #,44,qw    =              ",
"            1****1    o#<,qwq>   =              ",
"           1*****1     2qqiq>2                  ",
"           11***11     ;>22>22                  ",
"                       >2qqqq2                  ",
"                       >wiqqq>                  ",
"                       >www22                   ",
"                        ;;;                     ",
"                                                ",
"                                                "
};                                   