/* XPM */
static char *a2c5bd4531e64d17d137329da94cda02IxbygfCREm7cqqob[] = {
/* columns rows colors chars-per-pixel */
"48 48 38 1 ",
"  c None",
". c #111111",
"X c #161616",
"o c #1E1E1E",
"O c #2A2A2A",
"+ c #302424",
"@ c #353535",
"# c #41312E",
"$ c #4D3A36",
"% c #347430",
"& c #5A433F",
"* c #7C513F",
"= c #162C44",
"- c #393B43",
"; c #493357",
": c #434343",
"> c #43515B",
", c #674D48",
"< c #735750",
"1 c #5C4766",
"2 c #525964",
"3 c #997148",
"4 c #8E6B62",
"5 c #AA7162",
"6 c #AB7E75",
"7 c #2DAF2D",
"8 c #7B7B82",
"9 c #80648A",
"0 c #9D7EA4",
"q c #808999",
"w c #A5AEBC",
"e c #E8A08D",
"r c #FFC89B",
"t c gray79",
"y c #CCD4DB",
"u c #FFEBCE",
"i c #D9E1E8",
"p c #FFFFF3",
/* pixels */
"                                                ",
"                                                ",
"                                                ",
"                                                ",
"                                                ",
"                       &&&&&&&                  ",
"                  &&&#&<4464<4&&                ",
"                 &&&#&44<&&44<<4&               ",
"                &<<#&&<464<&&4<<4&&             ",
"                <<&#<&&<4<&<<<<<444&            ",
"               &<<&$&4<&&&<<<&44&6&4&           ",
"               &<&$&$<46&<6<6$<6&4#<#           ",
"               &<&#&&$<<<4<44#&4#&#<#           ",
"               $#&+&<&$$<4&4$5#4*###            ",
"               +#&+#&<&+4<$<#e#<5##             ",
"               ++#+#$&#+4<$#5e55e1              ",
"                #++##$#+&<5e;;;ue1              ",
"                ++++##+r&<e*8t;ur5              ",
"                 ++++#+u#<u*y;%upe              ",
"                  + o++5+&ury7%uue              ",
"                     ooo+*uuuuuur*              ",
"                       o+*5ruure*               ",
"                    22q2-+**5511>>              ",
"                   >qwwwq22255>>>>>             ",
"                  >iwwwiq>qqe5eq>>>             ",
"                  ->iiiq2>wiqe5wq-->            ",
"                 ->-o---oqiiiqwiw>>             ",
"                 >q>oo->o2qiwqqw>11             ",
"                ;;>wwqqO2q>>2222>11             ",
"               ;14$>OO-o2qqww22q>111            ",
"              ;1;$446$o>>>O>>22> 111            ",
"             ;1=o#$<$o->>O@@@@>> 111            ",
"            ;1;==$44#o-->@OOO@@>  11            ",
"            ;1===$46$OOO-OOOOOO@                ",
"           ;1;====$$;;OO--OOOOOO                ",
"           ;1=====;;;;1O1#,,<44,                ",
"           ;;=====;;;1111#,,##,,                ",
"           ;====  ;;1111 ##<<44,o               ",
"           ;==    ;;111  ##<,<4<#               ",
"           ;     ;1111    #,,,<,o               ",
"                 ;11*11   #,,>>>q               ",
"                 1;1**11  >qqwiq>;              ",
"                   1**1    >2q2>q>;             ",
"                           >qqqwiq>             ",
"                           >qqwwwq>             ",
"                            ;;;;;;              ",
"                                                ",
"                                                "
};                                   