/* XPM */
static char *_3a06bbeffc14946aed431eb23fba5e6M8nKib09K16oGdKf[] = {
/* columns rows colors chars-per-pixel */
"48 48 36 1 ",
"  c #D6C56B",
". c #C7B97E",
"X c #6EAF6E",
"o c #70AB46",
"O c #91B83C",
"+ c #AEC636",
"@ c #C8C679",
"# c #ABB569",
"$ c #91C381",
"% c #B7A968",
"& c #B8B669",
"* c #B8AA77",
"= c #A79759",
"- c #A89967",
"; c #5F994C",
": c #A9A868",
"> c #ABB677",
", c #AEA95B",
"< c #B8B087",
"1 c #B9B777",
"2 c #D3D331",
"3 c #C6B76A",
"4 c #9A9A67",
"5 c #C0A95B",
"6 c #978F56",
"7 c #D6C77A",
"8 c #9DA059",
"9 c #BAC578",
"0 c #A9A777",
"q c #C4C56B",
"w c #C7B874",
"e c #C9C784",
"r c #BBC088",
"t c #4C8357",
"y c #C7AA78",
"u c #B79764",
/* pixels */
" .XoO+@#$OO%+OO& .XoO+@#$OO%+OO&o*oO=+&=oO-+o+;O",
"o.+oOXo+:+oOo$>oo.+oOXo+:+oOo$>o+Oo+oO;o++o;O,o$",
"+$O+oO+O<oO1%O+O+$O+oO+O<oO1%O+OoO;oo+234#+O+;O5",
"XoO+O1;$+oOXOo6OXoO+O1;$+oOXOo6O:oO+oOo;$O;7Oo+O",
"O%oo+oOoOoO+O;O+O%oo+oOoOoO+O;O+O;8+$:O+O+1:+$o+",
"1$o:O9=O-:=O0O+o1$o:O9=O-:=O0O+oOO+OoX0+oX+o;.o.",
"oO9X2OO2+OO0o;OOoO9X2OO2+OO0o;OOo$Oo+1+O+o+1OoO@",
"<&o;&Xo4O%+O+oOo<&o;&Xo4O%+O+oOoXO;Oq;O+oO4+2OOO",
"o$&oOoo+&oOO-O,;o$&oOoo+&oOO-O,;oOo>Oo+5X+$OOXX&",
";o-:O;&oO&O+-O+4;o-:O;&oO&O+-O+4:+OoOwoOo&ewO;+&",
"+OoO$O&Oo28$OX+1+OoO$O&Oo28$OX+1Ooo:O++;&X+O+OoO",
"OoOr:Oo8+1oO+OOXOoOr:Oo8+1oO+OOXOO9oo4OoO,O+oO;O",
"<2+o+7;:OOo;+o+O<2+o+7;:OOo;+o+OOXOO0:o*+Oo+oOO+",
"oO&Oo,+OoOO$OOoXoO&Oo,+OoOO$OOoXoo%o+%wO$o+;rorw",
"O$;OX;o#oO+o0oXOO$;OX;o#oO+o0oXOO*;+OoO.2oooOOwO",
"oO++>1+%++;o+#XooO++>1+%++;o+#Xo+o+OOo+Oo;+1X+$+",
" .XoO+@#$OO%+OO& .XoO+@#$OO%+OO&o*oO=+&=oO-+o+;O",
"o.+oOXo+:+oOo$>oo.+oOXo+:+oOo$>o+Oo+oO;o++o;O,o$",
"+$O+oO+O<oO1%O+O+$O+oO+O<oO1%O+OoO;oo+234#+O+;O5",
"XoO+O1;$+oOXOo6OXoO+O1;$+oOXOo6O:oO+oOo;$O;7Oo+O",
"O%oo+oOoOoO+O;O+O%oo+oOoOoO+O;O+O;8+$:O+O+1:+$o+",
"1$o:O9=O-:=O0O+o1$o:O9=O-:=O0O+oOO+OoX0+oX+o;.o.",
"oO9X2OO2+OO0o;OOoO9X2OO2+OO0o;OOo$Oo+1+O+o+1OoO@",
"<&o;&Xo4O%+O+oOo<&o;&Xo4O%+O+oOoXO;Oq;O+oO4+2OOO",
"o$&oOoo+&oOO-O,;o$&oOoo+&oOO-O,;oOo>Oo+5X+$OOXX&",
";o-:O;&oO&O+-O+4;o-:O;&oO&O+-O+4:+OoOwoOo&ewO;+&",
"+OoO$O&Oo28$OX+1+OoO$O&Oo28$OX+1Ooo:O++;&X+O+OoO",
"OoOr:Oo8+1oO+OOXOoOr:Oo8+1oO+OOXOO9oo4OoO,O+oO;O",
"<2+o+7;:OOo;+o+O<2+o+7;:OOo;+o+OOXOO0:o*+Oo+oOO+",
"oO&Oo,+OoOO$OOoXoO&Oo,+OoOO$OOoXoo%o+%wO$o+;rorw",
"O$;OX;o#oO+o0oXOO$;OX;o#oO+o0oXOO*;+OoO.2oooOOwO",
"oO++>1+%++;o+#XooO++>1+%++;o+#Xo+o+OOo+Oo;+1X+$o",
"%OoOo+o<Ooo;OO+q%OoOo+o<Ooo;OO+qX#o;r+O:,o9oO+OO",
"o.6-o;O+;O$O+oOOo.6-o;O+;O$O+oOOXOOw;O&+@O;%+OwO",
"8+O8oO:oO+o;8#1+8+O8oO:oO+o;8#1+OO.+,o,XOoXoO$Oo",
"0Oo2$:o;oO+-O+XO0Oo2$:o;oO+-O+XO0,o+OO;oOOOo+o;t",
"ooO-OOO:OoOO-OO1ooO-OOO:OoOO-OO1,O$,+O:-$oO0oOo8",
"+1Oo;oOw#O1o+2XO+1Oo;oOw#O1o+2XOOoqOOoO>;O0OoOO+",
"OXoO,#;O1+4#o>OoOXoO,#;O1+4#o>Oo+5oO;;OOo0;+Oo0%",
"Oo+O42Oo:+oO9o7OOo+O42Oo:+oO9o7Oo+OOewo+O+XO$Oo=",
"Xe;eO#o$O2O2O&ooXe;eO#o$O2O2O&ooO+O+o+OO$1OO++O+",
"4Oo%++oO+:%+O=Oo4Oo%++oO+:%+O=OoOOOOo@Ooo@oO%OoO",
"Ooo4o+OOO;O-$oOOOoo4o+OOO;O-$oOOo1oOOoyo7+@O++:9",
"1Oo#+o5:ooo:o+o#1Oo#+o5:ooo:o+o#o&Oo:o:oO1+OO9Oo",
"o$X+O+:Xo&O+oO$+o$X+O+:Xo&O+oO$+XOo:X;o+$#;o++o+",
"Oo1$2+oO+O2OO;+OOo1$2+oO+O2OO;+Oo:;20;O+oOO+$+Oo",
"o+OO1o%o$OuOoO,1o+OO1o%o$OuOoO,1-o+oooOO+oX;2Xo+",
"+1o+oO+O.o2oOo+2+1o+oO+O.o2oOo+2+OO+#Xo++O2;++O."
};
