/* XPM */
static char *a2c5bd4531e64d17d137329da94cda02IxbygfCREm7cqqo5[] = {
/* columns rows colors chars-per-pixel */
"48 48 38 1 ",
"  c None",
". c #111111",
"X c #161616",
"o c #1E1E1E",
"O c #2A2A2A",
"+ c #302424",
"@ c #353535",
"# c #41312E",
"$ c #4D3A36",
"% c #347430",
"& c #5A433F",
"* c #7C513F",
"= c #162C44",
"- c #393B43",
"; c #493357",
": c #434343",
"> c #43515B",
", c #674D48",
"< c #735750",
"1 c #5C4766",
"2 c #525964",
"3 c #997148",
"4 c #8E6B62",
"5 c #AA7162",
"6 c #AB7E75",
"7 c #2DAF2D",
"8 c #7B7B82",
"9 c #80648A",
"0 c #9D7EA4",
"q c #808999",
"w c #A5AEBC",
"e c #E8A08D",
"r c #FFC89B",
"t c gray79",
"y c #CCD4DB",
"u c #FFEBCE",
"i c #D9E1E8",
"p c #FFFFF3",
/* pixels */
"                                                ",
"                                                ",
"                                                ",
"                                                ",
"                     $$$$$                      ",
"                   $$&<<<&$$                    ",
"                  $&##&&&##&$                   ",
"                 ###<&4<4&<###                  ",
"                 #&&<&&4&&<&&#$                 ",
"                $&4&&&&&&&&&4&$$                ",
"                $&<&&<<<<<&&<&$$$               ",
"               $<&&4&4&4&4&4&&<$$$              ",
"               $<&6<$6&6&6$<6&<$$$              ",
"               $&&4&#<$<$<#&4&&$#$$             ",
"               $&4<$#&#&#&#$<4&$$+$             ",
"               #&4&#5$5$5$5#&4&## +             ",
"               #$<#5e5e5e5e5#<$#+ +             ",
"               +e<#;;;eee;;;#<e+                ",
"               +r&*8t;rrr;t8*&r+                ",
"                1$*y;%uuu%;y*$1                 ",
"                 $ry7%upu%7yr$                  ",
"                215ruuuuuuur51222               ",
"              22qq-5errrrre5-qwwq2              ",
"             2qqiiw-**555**-qwqq2               ",
"             2qwwiiw-ere5e2-qqq>2               ",
"              >qqqq2-wqre5q2>>22qq              ",
"             >>--2O->iiqeqwq->2q22              ",
"             >>>>w-->wiq>qwq-222$$              ",
"             $iiw2=-2>>2O2>>-##$$<$             ",
"             $OOOO=>qqq2O2qq-=#<<$#             ",
"             $<464$>>>>2O2>>-==$$<#             ",
"              #$$##OOO::@OOOO==#<<#             ",
"              $<4$;OOO:OOOOOO===##              ",
"              $46$=,##>OOOOOO===1;              ",
"              =$$=#,,,;5544,#==;9;              ",
"              =;;=#,,,;,4664#==;91;             ",
"              =1==#4,#;$,<<,#===91;             ",
"              ;1==#4,#;<44<#==;=191             ",
"              1;=>#,,#;<66<#==;=;91             ",
"              1==;>###;<66<#==;==9;             ",
"              1==;;222>www,2>=;;=1;             ",
"              ;===>;;;>wiiwq>=  =1;             ",
"               =  2222>2222>     ;              ",
"                  ;qq2>>qq>>                    ",
"                   ;;;2qiiq2                    ",
"                      2wwww2                    ",
"                       ;;;;                     ",
"                                                "
};                                   