/* XPM */
static char *a2c5bd4531e64d17d137329da94cda02IxbygfCREm7cqqo2[] = {
/* columns rows colors chars-per-pixel */
"48 48 38 1 ",
"  c None",
". c #111111",
"X c #161616",
"o c #1E1E1E",
"O c #2A2A2A",
"+ c #302424",
"@ c #353535",
"# c #41312E",
"$ c #4D3A36",
"% c #347430",
"& c #5A433F",
"* c #7C513F",
"= c #162C44",
"- c #393B43",
"; c #493357",
": c #434343",
"> c #43515B",
", c #674D48",
"< c #735750",
"1 c #5C4766",
"2 c #525964",
"3 c #997148",
"4 c #8E6B62",
"5 c #AA7162",
"6 c #AB7E75",
"7 c #2DAF2D",
"8 c #7B7B82",
"9 c #80648A",
"0 c #9D7EA4",
"q c #808999",
"w c #A5AEBC",
"e c #E8A08D",
"r c #FFC89B",
"t c gray79",
"y c #CCD4DB",
"u c #FFEBCE",
"i c #D9E1E8",
"p c #FFFFF3",
/* pixels */
"                                                ",
"                                                ",
"                                                ",
"                                                ",
"                   ##&&&##                      ",
"                 ##<&4<4&<##                    ",
"                #&&<&&#&&<&&#                   ",
"               $&4&&##&##&&4&$                  ",
"               $&<$#&&&&#$$<&$                  ",
"              $<&$#&&<&<&#$$&<$                 ",
"              $<&$#&<<<<&#$$&<$                 ",
"              $#$#&<<4<<&#$$$#$                 ",
"              $&$#&4<4<4&+###&$                 ",
"              #$+&<44<4&&+#$&$#                 ",
"              #$+&444<4&+++#$$#                 ",
"              +#+&4<44<&++++##+                 ",
"              +++<4&44&++#$#+++                 ",
"               ++4<&4<&=+##$$+                  ",
"               ++4&<4$+=+++##+                  ",
"              22+&+<&+=+++#++>>                 ",
"             2qq=++<$+=+++++=2qq>               ",
"            2wwww++&+=++++=>2qwwq               ",
"            qiwww==&======q>2qqq>2              ",
"            =2iiw-->qqqwwwq>-->=>22             ",
"           =>==>>>>>qqqwww>==>2qqq2             ",
"          >q>>>qq>=--qqq>>=;;1>>>>              ",
"           >qww>>;1;======109901;               ",
"           =>>>;;19911;;;1099109;               ",
"           =1191;;119000009119001;              ",
"           =19911;;11999911190009;              ",
"           ;19991;;;;;;1119900000;              ",
"          =;1999;1;;;;119000000001;             ",
"          =199991;;;;1990099100009;             ",
"          =1991911;;19009911990009;             ",
"          ;191199;;;191111119990001;            ",
"          ;191;191;;199900099190009;            ",
"          ;191;191;1119000009119009;            ",
"          ;19;;;1111111;;;119119009;            ",
"           ==;;;;1111;====;1111;;;1;            ",
"             ===;;;;;=222>=;1;;   ;             ",
"                =====>qwwq>==;                  ",
"                 ;;;X>qqqw>                     ",
"                  ;;X>>22q2                     ",
"                     X>>>2;                     ",
"                      XXXX                      ",
"                                                ",
"                                                ",
"                                                "
};                                   