/* XPM */
static char *a2c5bd4531e64d17d137329da94cda02IxbygfCREm7cqqo4[] = {
/* columns rows colors chars-per-pixel */
"48 48 38 1 ",
"  c None",
". c #111111",
"X c #161616",
"o c #1E1E1E",
"O c #2A2A2A",
"+ c #302424",
"@ c #353535",
"# c #41312E",
"$ c #4D3A36",
"% c #347430",
"& c #5A433F",
"* c #7C513F",
"= c #162C44",
"- c #393B43",
"; c #493357",
": c #434343",
"> c #43515B",
", c #674D48",
"< c #735750",
"1 c #5C4766",
"2 c #525964",
"3 c #997148",
"4 c #8E6B62",
"5 c #AA7162",
"6 c #AB7E75",
"7 c #2DAF2D",
"8 c #7B7B82",
"9 c #80648A",
"0 c #9D7EA4",
"q c #808999",
"w c #A5AEBC",
"e c #E8A08D",
"r c #FFC89B",
"t c gray79",
"y c #CCD4DB",
"u c #FFEBCE",
"i c #D9E1E8",
"p c #FFFFF3",
/* pixels */
"                                                ",
"                                                ",
"                                                ",
"                                                ",
"                      $$$$$                     ",
"                    $$&<<<&$$                   ",
"                   $&##&&&##&$                  ",
"                  ###<&4<4&<###                 ",
"                 $#&&<&&4&&<&&#                 ",
"                $$&4&&&&&&&&&4&$                ",
"               $$$&<&&<<<<<&&<&$                ",
"              $$$<&&4&4&4&4&4&&<$               ",
"              $$$<&6<$6&6&6$<6&<$               ",
"             $$#$&&4&#<$<$<#&4&&$               ",
"             $+$$&4<$#&#&#&#$<4&$               ",
"             + ##&4&#5$5$5$5#&4&#               ",
"             + +#$<#5e5e5e5e5#<$#               ",
"                +e<#;;;eee;;;#<e+               ",
"                +r&*8t;rrr;t8*&r+               ",
"                 1$*y;%uuu%;y*$1                ",
"                  $ry7%upu%7yr$                 ",
"               22215ruuuuuuur512                ",
"              2qwwq-5errrrre5-qq22              ",
"               2qqwq-**555**-wiiqq2             ",
"               2>qqq-2e5ere-wiiwwq2             ",
"              qq22>>2q5erqw-2qqqq>              ",
"              22q2>-qwqeqii>-O2-->>             ",
"              $$222-qwq>qiw>--w>>>>             ",
"             $<$$##->>2O2>>2-=2wii$             ",
"             #$<<#=-qq2O2qqq>=OOOO$             ",
"             #<$$==->>2O2>>>>$464<$             ",
"             #<<#==OOOO@::OOO##$$#              ",
"              ##===OOOOOO:OOO;$4<$              ",
"              ;1===OOOOOO>##,=$64$              ",
"              ;9;==#,4455;,,,#=$$=              ",
"             ;19;==#4664,;,,,#=;;=              ",
"             ;19===#,<<,$;#,4#==1=              ",
"             191=;==#<44<;#,4#==1;              ",
"             19;=;==#<66<;#,,#>=;1              ",
"             ;9==;==#<66<;###>;==1              ",
"             ;1=;;=>2,www>222;;==1              ",
"             ;1=  =>qwiiw>;;;>===;              ",
"              ;     >2222>2222  =               ",
"                    >>qq>>2qq;                  ",
"                    2qiiq2;;;                   ",
"                    2wwww2                      ",
"                     ;;;;                       ",
"                                                "
};                                   