/* XPM */
static char *a2c5bd4531e64d17d137329da94cda02IxbygfCREm7cqqoa[] = {
/* columns rows colors chars-per-pixel */
"48 48 38 1 ",
"  c None",
". c #111111",
"X c #161616",
"o c #1E1E1E",
"O c #2A2A2A",
"+ c #302424",
"@ c #353535",
"# c #41312E",
"$ c #4D3A36",
"% c #347430",
"& c #5A433F",
"* c #7C513F",
"= c #162C44",
"- c #393B43",
"; c #493357",
": c #434343",
"> c #43515B",
", c #674D48",
"< c #735750",
"1 c #5C4766",
"2 c #525964",
"3 c #997148",
"4 c #8E6B62",
"5 c #AA7162",
"6 c #AB7E75",
"7 c #2DAF2D",
"8 c #7B7B82",
"9 c #80648A",
"0 c #9D7EA4",
"q c #808999",
"w c #A5AEBC",
"e c #E8A08D",
"r c #FFC89B",
"t c gray79",
"y c #CCD4DB",
"u c #FFEBCE",
"i c #D9E1E8",
"p c #FFFFF3",
/* pixels */
"                                                ",
"                                                ",
"                                                ",
"                                                ",
"                                                ",
"                        &&&&&&&                 ",
"                  &&<&#&<4464<4&&               ",
"                 &<4&#&44<&&44<<4&              ",
"                &44<#&&<464<&&4<<4&&            ",
"               &<4<&#<&&<4<&<<<<<444&           ",
"               &4<<&$&4<&&&<<<&44&6&4&          ",
"              &<4<&$&$<46&<6<6$<6&4#<#          ",
"              &<<&&#&&$<<<4<44#&4#&#<#          ",
"              &<&&#+&<&$$<4&4$5#4*###           ",
"             +&<&&#+#&<&+4<$<#e#<5##            ",
"             +&$&# +#$&#+4<$#5e55e1             ",
"              +#&# +##$#+&<5e;;;ue1             ",
"               +#  ++##+r&<e*8t;ur5             ",
"                +   ++#+u#<u*y;%upe             ",
"                     o++5+&ury7%uue             ",
"                      ooo+*uuuuuur*             ",
"                        o+*5ruure*              ",
"                       222++*5511               ",
"                      2qwwq22e5>>               ",
"                     2iwwwiq2qqe5               ",
"                    =2wiiiw2qwiqeq              ",
"                   =;;2222>oqwiiqq              ",
"                  ===2-oooo-qwiwq>              ",
"                 ===;2q----qO>>22               ",
"                ==;;192wiiw2<2qq>               ",
"               =;1199;=2222<6$$w2               ",
"               ;1999;==oO266$44Oo               ",
"              ;1111;==oOOO$$$64Oo               ",
"              ;11;;===oOOOOO$$$oO               ",
"             ;11;;===#<<OOOO$OOOO               ",
"             =1;;====#<4<<OooOOOO1              ",
"             =;;=  =#,,<44<o OO111              ",
"             =;=   o#,<4<,o  11111              ",
"              =    wq,44,#    11111             ",
"              =   >qwq,<#o    1****1            ",
"                  2>qiqq2     1*****1           ",
"                  22>22>;     11***11           ",
"                  2qqqq2>                       ",
"                  >qqqiw>                       ",
"                   22www>                       ",
"                     ;;;                        ",
"                                                ",
"                                                "
};                                   