/* XPM */
static char *a2c5bd4531e64d17d137329da94cda02IxbygfCREm7cqqo1[] = {
/* columns rows colors chars-per-pixel */
"48 48 38 1 ",
"  c None",
". c #111111",
"X c #161616",
"o c #1E1E1E",
"O c #2A2A2A",
"+ c #302424",
"@ c #353535",
"# c #41312E",
"$ c #4D3A36",
"% c #347430",
"& c #5A433F",
"* c #7C513F",
"= c #162C44",
"- c #393B43",
"; c #493357",
": c #434343",
"> c #43515B",
", c #674D48",
"< c #735750",
"1 c #5C4766",
"2 c #525964",
"3 c #997148",
"4 c #8E6B62",
"5 c #AA7162",
"6 c #AB7E75",
"7 c #2DAF2D",
"8 c #7B7B82",
"9 c #80648A",
"0 c #9D7EA4",
"q c #808999",
"w c #A5AEBC",
"e c #E8A08D",
"r c #FFC89B",
"t c gray79",
"y c #CCD4DB",
"u c #FFEBCE",
"i c #D9E1E8",
"p c #FFFFF3",
/* pixels */
"                                                ",
"                                                ",
"                                                ",
"                                                ",
"                      ##&&&##                   ",
"                    ##<&4<4&<##                 ",
"                   #&&<&&#&&<&&#                ",
"                  $&4&&##&##&&4&$               ",
"                  $&<$$#&&&&#$<&$               ",
"                 $<&$$#&<&<&&#$&<$              ",
"                 $<&$$#&<<<<&#$&<$              ",
"                 $#$$$#&<<4<<&#$#$              ",
"                 $&###+&4<4<4&#$&$              ",
"                 #$&$#+&&4<44<&+$#              ",
"                 #$$#+++&4<444&+$#              ",
"                 +##++++&<44<4&+#+              ",
"                 +++#$#++&44&4<+++              ",
"                  +$$##+=&<4&<4++               ",
"                  +##+++=+$4<&4++               ",
"                 >>++#+++=+&<+&+22              ",
"               >qq2=+++++=+$<++=qq2             ",
"               qwwq2>=++++=+&++wwww2            ",
"              2>qqq2>q======&==wwwiq            ",
"             22>=>-->qwwwqqq>--wii2=            ",
"             2qqq2>==>wwwqqq>>>>>==>=           ",
"              >>>>1;;=>>qqq--=>qq>>>q>          ",
"               ;109901======;1;>>wwq>           ",
"               ;9019901;;;11991;;>>>=           ",
"              ;100911900000911;;1911=           ",
"              ;90009111999911;;11991=           ",
"              ;0000099111;;;;;;19991;           ",
"             ;100000000911;;;;1;9991;=          ",
"             ;9000019900991;;;;199991=          ",
"             ;90009911990091;;1191991=          ",
"            ;100099911111191;;;991191;          ",
"            ;900091990009991;;191;191;          ",
"            ;9009119000009111;191;191;          ",
"            ;900911911;;;1111111;;;91;          ",
"            ;1;;;1111;====;1111;;;;==           ",
"             ;   ;;1;=>222=;;;;;===             ",
"                  ;==>qwwq>=====                ",
"                     >wqqq>X;;;                 ",
"                     2q22>>X;;                  ",
"                     ;2>>>X                     ",
"                      XXXX                      ",
"                                                ",
"                                                ",
"                                                "
};                                   