/* XPM */
static char *a2c5bd4531e64d17d137329da94cda02IxbygfCREm7cqqo0[] = {
/* columns rows colors chars-per-pixel */
"48 48 38 1 ",
"  c None",
". c #111111",
"X c #161616",
"o c #1E1E1E",
"O c #2A2A2A",
"+ c #302424",
"@ c #353535",
"# c #41312E",
"$ c #4D3A36",
"% c #347430",
"& c #5A433F",
"* c #7C513F",
"= c #162C44",
"- c #393B43",
"; c #493357",
": c #434343",
"> c #43515B",
", c #674D48",
"< c #735750",
"1 c #5C4766",
"2 c #525964",
"3 c #997148",
"4 c #8E6B62",
"5 c #AA7162",
"6 c #AB7E75",
"7 c #2DAF2D",
"8 c #7B7B82",
"9 c #80648A",
"0 c #9D7EA4",
"q c #808999",
"w c #A5AEBC",
"e c #E8A08D",
"r c #FFC89B",
"t c gray79",
"y c #CCD4DB",
"u c #FFEBCE",
"i c #D9E1E8",
"p c #FFFFF3",
/* pixels */
"                                                ",
"                                                ",
"                                                ",
"                                                ",
"                     ##&&&##                    ",
"                   ##<&4<4&<##                  ",
"                  #&&<&&#&&<&&#                 ",
"                 $&4&&##&##&&4&$                ",
"                 $&<$$&&&&&$$<&$                ",
"                $<&$$#&<&<&#$$&<$               ",
"                $<&$$#<<<<<#$$&<$               ",
"                $#$$$&4<4<4&$$$#$               ",
"                $&###&4<4<4&###&$               ",
"                #$&$#<44444<#$&$#               ",
"                #$$#+<<<4<<<+#$$#               ",
"                +##++&<<4<<&++##+               ",
"                +++#$&<&<&<&$#+++               ",
"                 +$$#$<$<$<$#$$+                ",
"                 +##++&$<$&++##+                ",
"               222++#+$$<$$+#++222              ",
"              2qwq2=+=+$<$+=+=2qwq2             ",
"             2qiwwwq==+$&$+==qwwwiq2            ",
"              2qiiiw->==&==>-wiiiq2             ",
"             >=>>2-->qqw+wqq>--2>>=>            ",
"            q>==>>>>>>wwwww>>>>>>==>q           ",
"            >qwqq>>;=->qwq>-=;>>qqwq>           ",
"             >>>>1101;=====;1011>>>>            ",
"              ;19919091;;;19091991;             ",
"              ;1901190000000911091;             ",
"              ;0909111900091119090;             ",
"              ;090091;19991;190090;             ",
"              ;01000911;;;11900010;             ",
"              ;0100100911190010010;             ",
"              10;001190000091100;01             ",
"              10;909;1999991;909;01             ",
"              19;1091;19991;1901;91             ",
"              19;1901;;111;;1091;91             ",
"              19;;9091;111;1909;;91             ",
"              19;;1991;;1;;1991;;91             ",
"              ;1;;19991;1;19991;;1;             ",
"              ==;;;1991;;;1991;;;==             ",
"                  =============                 ",
"                  >>>>>>X>>>>>>                 ",
"                  2qwwq2;2qwwq2                 ",
"                  ;wwww; ;wwww;                 ",
"                   ;;;;   ;;;;                  ",
"                                                ",
"                                                "
};                                   