/* XPM */
static char *d9c3a43a3d7a4011f5b832243d11bce3rb3XxDJ3M6YhJ6h2[] = {
/* columns rows colors chars-per-pixel */
"48 48 50 1 ",
"  c #D6C56B",
". c #C7B97E",
"X c #6EAF6E",
"o c #70AB46",
"O c #91B83C",
"+ c #AEC636",
"@ c #C8C679",
"# c #ABB569",
"$ c #91C381",
"% c #B7A968",
"& c #B8B669",
"* c #B8AA77",
"= c #A79759",
"- c #A89967",
"; c #5F994C",
": c #A9A868",
"> c #ABB677",
", c #AEA95B",
"< c #B8B087",
"1 c #B9B777",
"2 c #D3D331",
"3 c #C6B76A",
"4 c #9A9A67",
"5 c #C0A95B",
"6 c #978F56",
"7 c #D6C77A",
"8 c #9DA059",
"9 c #BAC578",
"0 c #565656",
"q c #848484",
"w c #A9A777",
"e c #3A3A3A",
"r c gray46",
"t c #8E8E8E",
"y c gray64",
"u c #4B4B4B",
"i c #1E1E1E",
"p c #C9C784",
"a c #C7B874",
"s c #BBC088",
"d c #583C13",
"f c #C47801",
"g c #EB8F00",
"h c #F3B000",
"j c #73511A",
"k c #4B6F60",
"l c #4C8357",
"z c #856413",
"x c #C7AA78",
"c c #B79764",
/* pixels */
" .XoO+@#$OO%+OO& .XoO+@#$OO%+OO&o*oO=+&=oO-+o+;O",
"o.+oOXo+:+oOo$>oo.+oOXo+:+oOo$>o+Oo+oO;o++o;O,o$",
"+$O+oO+O<oO1%O+O+$O+oO+O<oO1%O+OoO;oo+234#+O+;O5",
"XoO+O1;$+oOXOo6OXoO+O1;$+oOXOo6O:oO+oOo;$O;7Oo+O",
"O%oo+oOoOoO+O;O+O%oo+oOoOoO+O;O+O;8+$:O+O+1:+$o+",
"1$o:O9=O-:0qqqqqqqqqqqqqqqqqqqqqqqqqq0w+oX+o;.o.",
"oO9X2OO2+Oerrrrrrrrrrqqqttttttttyyyyye+O+o+1OoO@",
"<&o;&Xo4O%0euutiuuuuuuuuuuuuu0u0tiu0e0O+oO4+2OOO",
"o$&oOoo+&ou0euieuuuuuuuu0u000000ie0e0u+5X+$OOXX&",
";o-:O;&oO&uu0euuuuuuu0u0u000000000e0uuoOo&paO;+&",
"+OoO$O&Oo2uuu0iiiiiiiiiiiiiiiiiiii0uuu+;&X+O+OoO",
"OoOs:Oo8+1utiuiddddddddddddddddddeutiuOoO,O+oO;O",
"<2+o+7;:OOuieuidfffffffddfffffffde0ieuo*+Oo+oOO+",
"oO&Oo,+OoOuuuuidghhhhhhddghhhhhhde0u0uaO$o+;sosa",
"O$;OX;o#oOuuuuidghhhhhhddghhhhhhde0u0uO.2oooOOaO",
"oO++>1+%++uuuuidghhhhhhddghhhhhhje0u0u+Oo;+1X+$+",
" .XoO+@#$Ouuuuijdddddddjjdddddddje0u0u&=oO-+o+;O",
"o.+oOXo+:+uuuuijjjjjjjjjjjjjjjjjje0u0u;o++o;O,o$",
"+$O+oO+O<ouuuuijjjjjjjkjjjjjjjjjje0u0u234#+O+;O5",
"XoO+O1;$+ouu0uijgggg;OO;jgggggggje0u0uo;$O;7Oo+O",
"O%oo+oOoOouu0uijghhhO++O;gghhhhhje000uO+O+1:+$o+",
"1$o:O9=O-:uu0uijghhhkl;ljgghhhhhje000uw+oX+o;.o.",
"oO9X2OO2+Ouu0uijO+hhk;;jjgghhhhhje000u+O+o+1OoO@",
"<&o;&Xo4O%uu00ijO+Olddljjdddddddjeu00uO+oO4+2OOO",
"o$&oOoo+&ouu0uijlO+oOjzzzjzjzzzzze000u+5X+$OOXX&",
";o-:O;&oO&uu00ijj+O;oljzzzjzjzzzzeu00uoOo&paO;+&",
"+OoO$O&Oo2u00uijgOologgzzgggggggze000u+;&X+O+OoO",
"OoOs:Oo8+1u000ijgllkgggzzgggggggzeu00uOoO,O+oO;O",
"<2+o+7;:OOu00uijghhk;oolzghhhhhhze000uo*+Oo+oOO+",
"oO&Oo,+OoOu0u0ijghh;oolzzghhhhhhzeu00uaO$o+;sosa",
"O$;OX;o#oOu;;uijgh;;oohzzghhhhhhze000uO.2oooOOaO",
"oO++>1+%++;OOlijghll;ohzzghhhhhhzeu00u+Oo;+1X+$o",
"%OoOo+o<Ooll+O;olhhkllhzzghhhhhhze000uO:,o9oO+OO",
"o.6-o;O+;Ou;OolOlddkdddzzdddddddzeu00u&+@O;%+OaO",
"8+O8oO:oO+u;olilkzzkzzzzzzzzzzzzze0u0u,XOoXoO$Oo",
"wOo2$:o;oOulluijjkjkjjjjjjjjjjjjjeutiu;oOOOo+o;l",
"ooO-OOO:OouieuirrrklOolqqqqqqqqqreuieu:-$oOwoOo8",
"+1Oo;oOa#Ouuue0uulo+;luuuuuuuuuuuueuuuO>;OwOoOO+",
"OXoO,#;O1+uue0tiuo++O;uu0000000utiueuuOOow;+Oow%",
"Oo+O42Oo:+ue0uie0o;lOO000000uuuuieuueuo+O+XO$Oo=",
"Xp;pO#o$O2iiiiiiilik;OiiiiiiiiiiiiiiiiOO$1OO++O+",
"4Oo%++oO+:%+O=Oo4Oo%++oO+:%+O=OoOOOOo@Ooo@oO%OoO",
"Ooo4o+OOO;O-$oOOOoo4o+OOO;O-$oOOo1oOOoxo7+@O++:9",
"1Oo#+o5:ooo:o+o#1Oo#+o5:ooo:o+o#o&Oo:o:oO1+OO9Oo",
"o$X+O+:Xo&O+oO$+o$X+O+:Xo&O+oO$+XOo:X;o+$#;o++o+",
"Oo1$2+oO+O2OO;+OOo1$2+oO+O2OO;+Oo:;2w;O+oOO+$+Oo",
"o+OO1o%o$OcOoO,1o+OO1o%o$OcOoO,1-o+oooOO+oX;2Xo+",
"+1o+oO+O.o2oOo+2+1o+oO+O.o2oOo+2+OO+#Xo++O2;++O."
};
