/* XPM */
static char *e153c36b1d8d49d8bc0a2bfa82324483ZLLk9fNmFKleNd2v[] = {
/* columns rows colors chars-per-pixel */
"48 48 62 1 ",
"  c #D6C56B",
". c #C7B97E",
"X c #6EAF6E",
"o c #70AB46",
"O c #91B83C",
"+ c #AEC636",
"@ c #C8C679",
"# c #ABB569",
"$ c #91C381",
"% c #B7A968",
"& c #B8B669",
"* c #B8AA77",
"= c #A79759",
"- c #A89967",
"; c #5F994C",
": c #A9A868",
"> c #ABB677",
", c #667073",
"< c gray72",
"1 c #AEA95B",
"2 c #B8B087",
"3 c #B9B777",
"4 c gray60",
"5 c #7C7C7C",
"6 c gray83",
"7 c #D3D331",
"8 c #C6B76A",
"9 c #9A9A67",
"0 c #C0A95B",
"q c #978F56",
"w c #D6C77A",
"e c #565656",
"r c #BAC578",
"t c #A9A777",
"y c #8E8E8E",
"u c #727272",
"i c #C4C56B",
"p c #C7B874",
"a c #C9C784",
"s c #9DA059",
"d c #BBC088",
"f c gray64",
"g c #867A6E",
"h c #4B6F60",
"j c #6A835D",
"k c #7A8A58",
"l c #9D9177",
"z c #86826E",
"x c #899155",
"c c #4C8357",
"v c #617A60",
"b c #DB75CC",
"n c #8E8975",
"m c #B74CA7",
"M c #F0A6E6",
"N c #9B9753",
"B c #F7C9F0",
"V c #51826A",
"C c #7A8F7A",
"Z c #958A79",
"A c #C7AA78",
"S c #B79764",
/* pixels */
" .XoO+@#$OO%+OO& .XoO+@#$OO%+OO&o*oO=+&=oO-+o+;O",
"o.+oOXo+:+oOo$>oo.+oOXo+:+oOo$>,<<o+oO;o++o;O1o$",
"+$O+oO+O2oO3%O+O+$O+oO+O44<<<45<66<oo+789#+O+;O0",
"XoO+O3;$+oOXOoqOXoO+O3;4<66665<666<+oOo;$O;wOo+O",
"O%oo+oOoOoO+O;O+O%oo+o4<666654<6664e$:O+O+3:+$o+",
"3$o:Or=O-:=OtO+o3$o:54<6666,y5455<yeoXt+oX+o;.o.",
"oOrX7OO7+OOto;OOoOr,4<66666,5y5uu5ue+3+O+o+3OoO@",
"2&o;&Xo9O%+O+oOo2&o,y4<6666,y55uuuuei;O+oO9+7OOO",
"o$&oOoo+&oOO-O1;o$&,,y4<666,5y5,,u5eOo+0X+$OOXX&",
";o-:O;&oO&O+-O+9;o-,,,4<<66,y5,,,u5eOpoOo&apO;+&",
"+OoO$O&Oo7s$OX+3+Oo,5,y<<<4uu5,,,5e<44+;&X+O+OoO",
"OoOd:Oos+3oO+OOXOo,5y,y4<4uuu,u,54<66<uoO1O+oO;O",
"27+o+w;:OOo;+o+O27,5y5y44uuuuuu,54f6<<u*+Oo+oOO+",
"oO&Oo1+OoOO$OOoXoO,yy5yy45u5uu5f5uuff55e$o+;dodp",
"O$;OX;o#oO+otoXOO,<<4yyy4uuuuuu4u6<u55ue5oooOOpO",
"oO++>3+%++;o+#Xo5<66<44445u5u5f56<<<55ue4e+3X+$+",
" .XoO+@#$OO%+OO5<666<44445uu5u5ffffffuu<feg+o+;O",
"o.+oOX;O:+oOo$54<6h64y5y4y5555f5uuuuuf<6<ej;O1o$",
"+$O+oOh;OoO3%,yO;h5<y55545555456<666666<<5ek+;O0",
"XoO+O3;h;+OXO,+;huu5u555yy5554f6666666<<44elko+O",
"O%oo+O+oh+O+O;Oh5uhu;;5;<5y5y44666666<4554ezx$o+",
"3$o:Oc;Ohc+O;+;h5hO;O;4;Of5;c4f6<66645uuu4ejv.o.",
"cOrO7Oc;ch+cbbc5+Oc;O;<;O4y;c46<<<64uuuuu5enkoO@",
"2cO;OXhc;hOmMbm;occ;;55O;c;c446<4<<uuu5uu55eNOOO",
"o;c;OohcOmMb7bbmO;cO4y+;O;c44f<4<<4uuu45uu5ekXX&",
";oOc;Oc;OmbMbMBmO;m+mmOO;ccO;;444<4uuu45uu5ek;+&",
"+O;O;+cOcOmBBmmcOmbmbb;;ccO;<66<uu4uu545uuxkxOoO",
"Ooc;O;c;cObBO;;O;mMbMmccmmc<f6<<uu5u54455,kxjO;O",
"2;+Occc;Vcmm;cc+hcmbmmcmBBmuuff55e5u5445,kjxjOO+",
"oc;;c;;cVhh;cch;h+Oc+c+mMBm6<u55ueuu445,Cjxvdodp",
"O$c+;oO;;Occ;OOc+;O;ObBM77MbOc55ue,55,,ZNjjoOOpO",
"oO+co;hcO;h;O;cmmhOcObBM7bMbcuuuejxkkjxkj;+3X+$+",
"h+o;ObmO;chOchmBBm;cO;;mbbmoc,,eX#o;d+O:1oroO+OO",
"o;qOcmm;VchO;cmMBm;O;O;mbboc;O;OXOOp;O&+@O;%+OpO",
"s;O+c;;cVhh;bBM77Mbc+c+oc;O;Oc3+OO.+1o1XOoXoO$Oo",
";c;+coO;;OccbBM7bMb;OmOmm;cOc+XOt1o+OO;oOOOo+o;O",
"c;+OoOhcO;h;O;mbbmOcmbmbbOhOcOO31O$1+O:-$oOtoOos",
"+c+;OhcObmhOchmbbh;hmMbMm;Oc+7XOOoiOOoO>;OtOoOO+",
"OcO;oc;Omm;;;cc;O;Oh;mbmmcOco>Oo+0oO;;OOot;+Oot%",
"OcOcocOcc;;OO;h;O;OchOoc;oOc;cwOo+OOapo+O+XO$Oo=",
"Xa;chhOcOOc;cc;;cO;cho;c;o;oc&ooO+O+o+OO$3OO++O+",
"9Ooc+chOcccc;cOcO;ccco;h;cocO=OoOOOOo@Ooo@oO%OoO",
"Ooo9o+;cch;cOh;cOcchcOchcoc-$oOOo3oOOoAow+@O++:r",
"3Oo#+oc;Oh;cchchccchhOc:coc:o+o#o&Oo:o:oO3+OOrOo",
"o$X+O+:c;Oc;ch;hOch;c;cXooc+oO$+XOo:X;o+$#;o++o+",
"Oo3$7+oc;O;cOhOOhcho7coO+O7OO;+Oo:;7t;O+oOO+$+Oo",
"o+OO3o%o$O;coO;c;cOc;c%o$OSOoO13-o+oooOO+oX;7Xo+",
"+3o+oO+O.o7oOo+7c3ocoO+O.o7oOo+7+OO+#Xo++O7;++O."
};
