/* XPM */
static char *a2c5bd4531e64d17d137329da94cda02IxbygfCREm7cqqoz[] = {
/* columns rows colors chars-per-pixel */
"48 48 38 1 ",
"  c None",
". c #111111",
"X c #161616",
"o c #1E1E1E",
"O c #2A2A2A",
"+ c #302424",
"@ c #353535",
"# c #41312E",
"$ c #4D3A36",
"% c #347430",
"& c #5A433F",
"* c #7C513F",
"= c #162C44",
"- c #393B43",
"; c #493357",
": c #434343",
"> c #43515B",
", c #674D48",
"< c #735750",
"1 c #5C4766",
"2 c #525964",
"3 c #997148",
"4 c #8E6B62",
"5 c #AA7162",
"6 c #AB7E75",
"7 c #2DAF2D",
"8 c #7B7B82",
"9 c #80648A",
"0 c #9D7EA4",
"q c #808999",
"w c #A5AEBC",
"e c #E8A08D",
"r c #FFC89B",
"t c gray79",
"y c #CCD4DB",
"u c #FFEBCE",
"i c #D9E1E8",
"p c #FFFFF3",
/* pixels */
"                                                ",
"                                                ",
"                      $$$$$                     ",
"                    $$&<<<&$$                   ",
"                   $&##&&&##&$                  ",
"                  ###<&4<4&<###                 ",
"                  #&&<&&4&&<&&#                 ",
"                 $&4&&&&&&&&&4&$                ",
"                 $&<&&<<<<<&&<&$                ",
"                $<&&4&4&4&4&4&&<$               ",
"                $<&6<$6&6&6$<6&<$               ",
"                $&&4&#<$<$<#&4&&$               ",
"                $&4<$#&#&#&#$<4&$               ",
"                #&4&#5$5$5$5#&4&#               ",
"                #$<#5e5e5e5e5#<$#               ",
"                +e<#;;;eee;;;#<e+               ",
"                +r&*8t;rrr;t8*&r+               ",
"                 1$*y;%uuu%;y*$1                ",
"                  $ry7%upu%7yr$                 ",
"                2215ruuuuuuur5122               ",
"              22wq2-5errrrre5-2qw22             ",
"             2qiwwwq-**555**-qwwwiq2            ",
"              2qiiiw-qer5req-wiiiq2             ",
"              q>>2q22iqereqi22q2>>q             ",
"             q>--2O-qwiqrqiwq-O2-->q            ",
"             2wiwq-->qwq>qwq>--qwiw2            ",
"             $2222=-2>>2O2>>2-=2222$            ",
"            $4OOOO=-q222O222q-=OOOO4$           ",
"            $<64<$->>qw2O2wq>>-$<46<$           ",
"             #$$##-OO>>2O2>>OO-##$$#            ",
"             $4<$;OOOO@:@:@OOOO;$<4$            ",
"             $64$=OOOOOO.OOOOOO=$46$            ",
"              $$1=,,OOOO.OOOO,,=1$$             ",
"              ;19=64,OOO.OOO,46=91;             ",
"              ;11=,<64,O.O,46<,=11;             ",
"              ;91;#,<,$$X$$,<,#;19;             ",
"              ;9=;#,4<,$X$,<4,#;=9;             ",
"              ;9=;#,44<#X#<44,#;=9;             ",
"              19==#<46<#X#<64<#==91             ",
"              ;1=>2,<<,2>2,<<,2>=1;             ",
"               ; >q$,,#q>q#,,$q> ;              ",
"                  >qiwq>X>qwiq>                 ",
"                  >>>q>>X>>q>>>                 ",
"                  2qiwq2;2qwiq2                 ",
"                  ;iwww; ;wwwi;                 ",
"                   ;;;;   ;;;;                  ",
"                                                ",
"                                                "
};                                   