/* XPM */
static char *result[] = {
"32 32 8 1",
"a c #FFFFFF",
"b c #DDDDDD",
"c c #BBBBBB",
"d c #999999",
"e c #777777",
"f c #555555",
"g c #333333",
"h c #000000",
"dddddddddddddddddddddddddddddddd",
"ddddddddddddggggggggdddddddddddd",
"ddddddbdddddggggggggdddddddddddd",
"ddddddddddddggggggggdddddbaddddd",
"ddddddddddddggggggggdddddddddddd",
"ddddddddddddggggggggdddddddddddd",
"ddddddbdddddggggggggdddddddddddd",
"ddddddecdddddddggddddddddddddddd",
"ddggggggggggggggggggggggggggcddd",
"dddggggggggggggggggggggggggggcdd",
"dddddddddddddbdggddddddddddddddd",
"ddddddbddddddddggddddddddddddddd",
"ddddddddddddddbggddddddddbaddddd",
"dddddddddddddddggddddddddddddddd",
"dddddddddddddbbggddddddddddddddd",
"ddddddbddddddddggdbadddddddddddd",
"ddddddecdddddddggddddddddddddddd",
"dddddddddddddddggddddddddddddddd",
"dddddddddddddbdggddddddddddddddd",
"ddddddbddddddggddggddddddddddddd",
"ddddddddddddggbdddggdddddbaddddd",
"dddddddddddggddddddggddddddddddd",
"ddddddddddggdbbdddddggdddddddddd",
"ddddddbddggdddddddbadggddddddddd",
"ddddddecggddddddddddddggdddddddd",
"dddddddggddddddccedddddggddddddd",
"ddddddggdddddbddddddddddggdddddd",
"dddddggddddddddddddddddddggddddd",
"ddddggddddddddbddddddddddbggdddd",
"dddggddddddddddddddddddddddggddd",
"ddggdddddddddbbdddddddddddddggdd",
"dggdddbdddddddddddbadddddddddggd",
"ddddddecdddddddddddddddddddddddd"
};