/* XPM */
static char *result[] = {
"32 32 8 1",
"a c #FFFFFF",
"b c #DDDDDD",
"c c #BBBBBB",
"d c #999999",
"e c #777777",
"f c #555555",
"g c #333333",
"h c #000000",
"dddddddddddddddddddddddddddddddd",
"dddddddddddddbdddddddddddddddddd",
"ddddddbddddddddddddddddddddddddd",
"ddddddddddddddbddddddddddbaddddd",
"dddddddddddddddddddddddddddddddd",
"dddddddddddddbbddddddddddddddddd",
"ddddddbdddddddddddbadddddddddddd",
"ddddddecdddddddddddddddddddddddd",
"dddddddddddddddddddddddddddddddd",
"ddddddddddddddhhhddddddddddddddd",
"ddddddbdddddhhhhhhhddddddddddddd",
"dddddddddddhhhhhhhhhdeddbcdddddd",
"ddddddddddhhhhhhhhhhhddcdddddddd",
"ddddddddddhhhhhhhhhhhdeddddddddd",
"ddddddbdddhhhhhhhhhhhddddddddddd",
"ddddddecdddhhhhhhhhhddeddddddddd",
"ddddddddddedhhhhhhhdddddeddddddd",
"ddddddddddddddhhhdddddddddddcddd",
"ddddddbddddddddddddddddddddddddd",
"ddddddddddecdddddddddddddbaddddd",
"dddddddddddddddecddddddddddddddd",
"ddddddddddddddecdddddddddddddddd",
"ddddddbdddedddddcddddddddddddddd",
"ddddddecddddddddddecdddddddddddd",
"dddddddddddddddccedddddddddddddd",
"dddddddddddddbdddddddddddddddddd",
"ddddddbddddddddddddddddddddddddd",
"ddddddddddddddbddddddddddbaddddd",
"dddddddddddddddddddddddddddddddd",
"dddddddddddddbbddddddddddddddddd",
"ddddddbdddddddddddbcdddddddddddd",
"ddddddecdddddddddddddddddddddddd"
};