/* XPM */
static char *cb9e5311f1984993dbd244ccfec0d4c0EzWjzQQEsMKwAzNK[] = {
/* columns rows colors chars-per-pixel */
"48 48 154 2 ",
"   c #D6C56B",
".  c #C7B97E",
"X  c #6EAF6E",
"o  c #70AB46",
"O  c #91B83C",
"+  c #AEC636",
"@  c #C8C679",
"#  c #ABB569",
"$  c #91C381",
"%  c #B7A968",
"&  c #B8B669",
"*  c #B8AA77",
"=  c #A79759",
"-  c #A89967",
";  c #5F994C",
":  c #A9A868",
">  c #ABB677",
",  c #AEA95B",
"<  c #B8B087",
"1  c #B9B777",
"2  c #D3D331",
"3  c #C6B76A",
"4  c #9A9A67",
"5  c #C0A95B",
"6  c #978F56",
"7  c #D6C77A",
"8  c #F7C9F0",
"9  c #9DA059",
"0  c #BAC578",
"q  c #A9A777",
"w  c white",
"e  c #DB96D1",
"r  c #C76BBA",
"t  c #DB75CC",
"y  c #C4C56B",
"u  c #F0A6E6",
"i  c #9BA1A1",
"p  c #C7B874",
"a  c #C9C784",
"s  c #B5BABA",
"d  c #B74CA7",
"f  c #BBC088",
"g  c #D3D6D6",
"h  c #3E4444",
"j  c #7F8585",
"k  c #535A5A",
"l  c #899155",
"z  c #7A8A58",
"x  c #6A835D",
"c  c #7A8F7A",
"v  c #7C7665",
"b  c #7E8685",
"n  c #5C9E51",
"m  c #679E7B",
"M  c #78AC8B",
"N  c #71947F",
"B  c #7A8A83",
"V  c #4D995C",
"C  c gray83",
"Z  c #B5CDBD",
"A  c #669E7A",
"S  c #74AD88",
"D  c #82B995",
"F  c #77AC8A",
"G  c #798C82",
"H  c #575E5E",
"J  c #535C5A",
"K  c #5E846E",
"L  c #40594B",
"P  c #587A68",
"I  c #4A7B66",
"U  c #61AB4A",
"Y  c gray64",
"T  c #7E9786",
"R  c #4B8260",
"E  c #6FA683",
"W  c #7EB491",
"Q  c #80B794",
"!  c #83B996",
"~  c #83A892",
"^  c #91A49B",
"/  c #90A49A",
"(  c #659878",
")  c #548867",
"_  c #506D5D",
"`  c #90A597",
"'  c #457757",
"]  c #518363",
"[  c #6A9C7D",
"{  c #79AC8B",
"}  c #7CB18E",
"|  c #7EB492",
" . c #7FB592",
".. c #7AA98B",
"X. c #6FAA45",
"o. c #526E5F",
"O. c #5F8C70",
"+. c #8CA598",
"@. c #669D7A",
"#. c #578D6A",
"$. c #528665",
"%. c #3F5048",
"&. c #62835F",
"*. c #90B73B",
"=. c #4A7A3D",
"-. c #4D785E",
";. c #588368",
":. c #739E82",
">. c #749F84",
",. c #75A285",
"<. c #2D5E5A",
"1. c #538765",
"2. c #457357",
"3. c #3F574A",
"4. c #69835C",
"5. c #548A45",
"6. c #496554",
"7. c #40664F",
"8. c #3E5349",
"9. c #51826A",
"0. c #5C735C",
"q. c #3B5252",
"w. c #3D5748",
"e. c #527363",
"r. c #798957",
"t. c #685A59",
"y. c #3D5B48",
"u. c #3E5E4A",
"i. c #7F7B6E",
"p. c #69B94F",
"a. c #86826E",
"s. c #83D448",
"d. c #576B58",
"f. c #4B6F60",
"g. c #8D826E",
"h. c #958A74",
"j. c #4F5763",
"k. c #334747",
"l. c #57656A",
"z. c #4B525D",
"x. c #485D67",
"c. c #565656",
"v. c #727272",
"b. c #8E896F",
"n. c #5D694D",
"m. c #898268",
"M. c #617A60",
"N. c #4C8357",
"B. c #456357",
"V. c #4A8F57",
"C. c #969176",
"Z. c #3A3A3A",
"A. c #958376",
"S. c #B79764",
/* pixels */
"  . X o O + @ # $ O O % + O O &   . X o O + @ # $ O O % + O O & o * o O = + & = o O - + o + ; O ",
"o . + o O X o + : + o O o $ > o o . + o O X o + : + o O o $ > o + O o + o O ; o + + o ; O , o $ ",
"+ $ O + o O + O < o O 1 % O + O + $ O + o O + O < o O 1 % O + O o O ; o o + 2 3 4 # + O + ; O 5 ",
"X o O + O 1 ; $ + o O X O o 6 O X o O + O 1 ; $ + o O X O o 6 O : o O + o O o ; $ O ; 7 O o + O ",
"O % o o + o O o O o O + O ; O + O % o o + 8 8 8 8 8 O + O ; O + O ; 9 + $ : O + O + 1 : + $ o + ",
"1 $ o : O 0 = O - : = O q O + o 1 $ o 8 w 8 e e e e 8 8 q O + o O O + O o X q + o X + o ; . o . ",
"o O 0 X 2 O O 2 + O O q o ; O O o O 8 w w w 8 e r r t e 8 ; O O o $ O o + 1 + O + o + 1 O o O @ ",
"< & o ; & X o 4 O % + O + o O o < 8 w w w w 8 e r r r r e 8 O o X O ; O y ; O + o O 4 + 2 O O O ",
"o $ & o O o o + & o O O - O , ; o 8 w w w w u e t u r r t 8 , ; o O o > O o + 5 X + $ O O X X & ",
"; o - : O ; & o O & O + - O + i 8 e e 8 8 u e r r t u e t e 8 i : + O o O p o O o & a p O ; + & ",
"+ O o O $ O & O o 2 9 $ O X i s e 8 8 e d d d d d t t u e t 8 s i o o : O + + ; & X + O + O o O ",
"O o O f : O o 9 + 1 o O + O i s u 8 8 t d d d d d r t 8 u t 8 s i O 0 o o 4 O o O , O + o O ; O ",
"< 2 + o + 7 ; : O O o ; + i s g e 8 8 d r d d d d r t 8 8 u 8 g s i O O q : o * + O o + o O O + ",
"o O & O o , + O o O O $ O i s g e e r d e t r d d t u 8 8 8 u g s i h o + % p O $ o + ; f o f p ",
"O $ ; O X ; o # o O + o q j s g t e r r e e t t t u 8 8 8 8 t g s k h + O o O . 2 o o o O O p O ",
"o O + + > 1 + % + + ; o + j i g i u t t t e 8 8 8 8 8 8 8 u r g i k l O O o + O o ; + 1 X + $ + ",
"  . X o O + @ # $ O O % + z j s g t u t t t e u 8 8 8 8 u r g s i h x O = + & = o O - + o + ; O ",
"o . + o O X o + : + o O o c j i s g t e u t t t e 8 8 r i g s i k h x + o O ; o + + o ; O , o $ ",
"+ $ O + o O + O < o O 1 % O l j i s g g t e u u u r i g g s i k h z ; o o + 2 3 4 # + O + ; O 5 ",
"X o O + O 1 ; $ + o O X O o v b j i s s g g i i i g g s s i k k h x O + o O o ; $ O ; 7 O o + O ",
"O % o o + o O o O o O + O n m M N B j i s s g g g s s i k h k h z ; 9 + $ : O + O + 1 : + $ o + ",
"1 $ o : O 0 = O - : V C C Z A S D F G j j j i i i H h h h k J K L P V V I X q + o X + o ; . o . ",
"o O 0 X 2 O O 2 + O V U Y T R E W Q ! ~ ^ j h h h h k H j / ( ) _ h U V I 1 + O + o + 1 O o O @ ",
"< & o ; & X o 4 O % V V U ` ' ] [ { } |  ...X.X.X.X.o.O.+.@.#.$.%.&.V V I ; O + o O 4 + 2 O O O ",
"o $ & o O o o + & o V V V *.X.=.-.;.:.>.,.X.X.; <.<.; X.1.$.2.3.P V V V I o + 5 X + $ O O X X & ",
"; o - : O ; & o O & U V *.*.4.5.=.=.6.<.<.X.; =.=.=.<.; X.7.8.&.V V V 9.I p o O o & a p O ; + & ",
"+ O o O $ O & O o 2 V U *.X.0.X.X.5.=.<.q.q.=.=.=.=.=.=.=.<.w.e.; ; ; 9.I + + ; & X + O + O o O ",
"O o O f : O o 9 + 1 U V *.5.r.t.X.5.5.<.q.q.<.<.=.=.<.<.<.y.u.t.*.*.X.; I i.O o O , O + o O ; O ",
"< 2 + o + 7 ; : O O p.U X.*.*.X.5.=.5.=.<.<.5.5.=.<.<.<.5.5.=.X.*.*.X.X.I a.x * + O o + o O O + ",
"o O & O o , + O o O s.p.X.*.X.d.=.<.5.X.X.5.X.*.X.<.<.<.; X.5.f.f.f.; X.I g.h.O $ o + ; f o f p ",
"O $ ; O X ; o # o O s.p.X.X.=.<.j.k.5.*.*.5.X.*.X.<.=.; =.X.X.l.f.f.f.; I x z . 2 o o o O O p O ",
"o O + + > 1 + % + + p.p.X.=.<.q.k.z.=.*.*.X.5.X.5.=.; *.*.=.4.5.f.f.=.=.I x l O o ; + 1 X + $ o ",
"% O o O o + o < O o s.p.=.U q.q.k.k.x.=.*.*.5.X.=.=.; *.*.4.=.; =.<.<.=.c.l z : , o 0 o O + O O ",
"o . 6 - o ; O + ; O s.s.s.U q.q.q.q.<.<.=.*.5.5.<.<.=.; X.X.5.; =.U V <.v.z b.+ @ O ; % + O p O ",
"9 + O 9 o O : o O + s.s.<.<.<.<.<.q.<.<.<.=.5.5.<.q.q.<.<.=.X.5.=.U U U n.x m.X O o X o O $ O o ",
"q O o 2 $ : o ; o O U V V V I I I I 9.I I 9.5.=.<.I c.V v.<.<.5.9.I I I n.z M.o O O O o + o ; N.",
"o o O - O O O : O o U V I 9.9.9.9.9.I 9.B.9.=.<.k.I n.V V q.<.q.9.I I I n.z a.- $ o O q o O o 9 ",
"+ 1 O o ; o O p # O U I V 9.9.9.9.I 9.I I 9.9.9.I I c.V 9.V.9.9.9.B.I I n.x z > ; O q O o O O + ",
"O X o O , # ; O 1 + V V I 9.9.9.9.9.I 9.B.9.9.9.I I B.V.V.9.V.9.9.I I I n.M.z O o q ; + O o q % ",
"O o + O 4 2 O o : + U I I 9.9.9.9.I 9.9.I 9.9.9.I I B.V.9.V.9.9.9.B.I I n.h.x + O + X O $ O o = ",
"X a ; a O # o $ O 2 V V I 9.9.9.9.9.9.9.B.I 9.9.I I B.V.V.V.9.9.I I I I n.l z O $ 1 O O + + O + ",
"4 O o % + + o O + : V I I I 9.9.9.B.B.B.B.I I I I I B.V.V.V.V.I I B.I I n.C.z o o @ o O % O o O ",
"O o o 4 o + O O O ; B.B.B.<.Z.Z.Z.Z.Z.B.Z.Z.B.<.<.B.Z.Z.Z.Z.B.B.Z.B.Z.B.B.x A.o 7 + @ O + + : 0 ",
"1 O o # + o 5 : o o o : o + o # 1 O o # + o 5 : o o o : o + o # o & O o : o : o O 1 + O O 0 O o ",
"o $ X + O + : X o & O + o O $ + o $ X + O + : X o & O + o O $ + X O o : X ; o + $ # ; o + + o + ",
"O o 1 $ 2 + o O + O 2 O O ; + O O o 1 $ 2 + o O + O 2 O O ; + O o : ; 2 q ; O + o O O + $ + O o ",
"o + O O 1 o % o $ O S.O o O , 1 o + O O 1 o % o $ O S.O o O , 1 - o + o o o O O + o X ; 2 X o + ",
"+ 1 o + o O + O . o 2 o O o + 2 + 1 o + o O + O . o 2 o O o + 2 + O O + # X o + + O 2 ; + + O . "
};
