/* XPM */
static char *result[] = {
"32 32 8 1",
"a c #FFFFFF",
"b c #DDDDDD",
"c c #BBBBBB",
"d c #999999",
"e c #777777",
"f c #555555",
"g c #333333",
"h c #000000",
"dddddddddddddddddddddddddddddddd",
"dddddddddddddbdddddddddddddddddd",
"ddddddbddddddddddddddddddddddddd",
"ddddddddddddddbddddddddddbaddddd",
"dddddddddddddddddddddddddddddddd",
"dddddddddddddbbddddddddddddddddd",
"ddddddbdddddddddddbadddddddddddd",
"ddddddecdddddddddddddddddddddddd",
"dddddddddddddddddddddddddddddddd",
"ddddddddaaaaaaaaaaaaaaaadddddddd",
"ddddddbdaaaaaaaaaaaaaaaadddddddd",
"ddddddddaaaaaaaaaaaaaaaadbaddddd",
"ddddddddaaaaaaaaaaaaaaaadddddddd",
"ddddddddaaaaaaaaaaaaaaaadddddddd",
"ddddddbdaaaaaaaaaaaaaaaadddddddd",
"ddddddecaaaaaaaaaaaaaaaadddddddd",
"ddddddddaaaaaaaaaaaaaaaadddddddd",
"ddddddddaaaaaaaaaaaaaaaadddddddd",
"ddddddbdaaaaaaaaaaaaaaaadddddddd",
"ddddddddaaaaaaaaaaaaaaaadbaddddd",
"ddddddddaaaaaaaaaaaaaaaadddddddd",
"ddddddddaaaaaaaaaaaaaaaadddddddd",
"ddddddbdaaaaaaaaaaaaaaaadddddddd",
"ddddddecaaaaaaaaaaaaaaaadddddddd",
"dddddddddddddddccedddddddddddddd",
"dddddddddddddbdddddddddddddddddd",
"ddddddbddddddddddddddddddddddddd",
"ddddddddddddddbddddddddddbaddddd",
"dddddddddddddddddddddddddddddddd",
"dddddddddddddbbddddddddddddddddd",
"ddddddbdddddddddddbadddddddddddd",
"ddddddecdddddddddddddddddddddddd"
};