/* XPM */
static char *result[] = {
"32 32 8 1",
"a c #FFFFFF",
"b c #DDDDDD",
"c c #BBBBBB",
"d c #999999",
"e c #777777",
"f c #555555",
"g c #333333",
"h c #000000",
"dddddddddddddddddddddddddddddddd",
"deffffffffffffffffffffffffffffed",
"dffffffffffffffffffffffffffffffd",
"dfffffffffffffffffffffffgffffffd",
"dfffffffgffffffffffffffffffffffd",
"dffffffffffffffffffffffffffffffd",
"dffffffffffffffffffffffffffffffd",
"dffffffffffffffffffffffffffffffd",
"dfffffffffffffffffffgffffffffffd",
"dffffffffffffffffffffffffffffffd",
"dfffffffffffgffffffffffffffffffd",
"dffffffffffffffffffffffffffffffd",
"dffffffffffffffffffffffffffffffd",
"dffffffffgffffffffffffgffffffffd",
"dffffffffffffffffffffffffffffffd",
"dfffffffffffffffgffffffffffffffd",
"dffffffffffffffffffffffffffffffd",
"dffffffffffffffffffffffffffffffd",
"dffffffgghfffffffffffffffffffffd",
"dffffffffffffffffffffffffffffffd",
"dffffffffffffffffffffffffffffffd",
"dffffffffffffffffffffffffffffffd",
"dffffffffffffffffffffffffffffffd",
"dffffffffffffffffffffffffffffffd",
"dffffffffffffffffgfffffffffffffd",
"dffffffffffffffffffffffffffffffd",
"dffffffffffffffffffffffffffffffd",
"dfffffffgffffffffffffffffffffffd",
"dffffffffffffffffffffffffffffffd",
"dffffffffffffffffffghffffffffffd",
"deffffffffffffffffffffffffffffed",
"dddddddddddddddddddddddddddddddd"
};